G04 EAGLE Gerber X2 export*
G75*
%MOMM*%
%FSLAX34Y34*%
%LPD*%
%AMOC8*
5,1,8,0,0,1.08239X$1,22.5*%
G01*
%ADD10C,1.879600*%

G36*
X50826Y1275D02*
X50826Y1275D01*
X50875Y1274D01*
X52956Y1479D01*
X52983Y1487D01*
X53011Y1487D01*
X53173Y1534D01*
X57018Y3127D01*
X57074Y3161D01*
X57134Y3187D01*
X57199Y3239D01*
X57227Y3256D01*
X57240Y3271D01*
X57265Y3292D01*
X60208Y6235D01*
X60247Y6288D01*
X60293Y6335D01*
X60333Y6408D01*
X60352Y6435D01*
X60358Y6453D01*
X60373Y6482D01*
X61966Y10327D01*
X61973Y10355D01*
X61986Y10380D01*
X62021Y10544D01*
X62226Y12625D01*
X62224Y12652D01*
X62229Y12700D01*
X62229Y23158D01*
X62228Y23166D01*
X62229Y23174D01*
X62208Y23288D01*
X62190Y23401D01*
X62186Y23408D01*
X62184Y23416D01*
X62128Y23517D01*
X62074Y23618D01*
X62069Y23624D01*
X62065Y23631D01*
X61979Y23709D01*
X61896Y23788D01*
X61889Y23791D01*
X61883Y23796D01*
X61777Y23843D01*
X61673Y23891D01*
X61665Y23892D01*
X61658Y23895D01*
X61543Y23906D01*
X61429Y23918D01*
X61421Y23917D01*
X61413Y23917D01*
X61301Y23891D01*
X61188Y23866D01*
X61181Y23862D01*
X61174Y23860D01*
X61076Y23799D01*
X60977Y23740D01*
X60972Y23734D01*
X60965Y23730D01*
X60852Y23606D01*
X60421Y23013D01*
X53122Y30312D01*
X60421Y37612D01*
X60852Y37019D01*
X60858Y37013D01*
X60862Y37006D01*
X60945Y36927D01*
X61027Y36846D01*
X61034Y36842D01*
X61040Y36837D01*
X61144Y36788D01*
X61248Y36738D01*
X61256Y36737D01*
X61263Y36733D01*
X61377Y36721D01*
X61492Y36705D01*
X61500Y36707D01*
X61507Y36706D01*
X61620Y36731D01*
X61733Y36753D01*
X61740Y36757D01*
X61748Y36758D01*
X61846Y36817D01*
X61947Y36874D01*
X61952Y36880D01*
X61959Y36885D01*
X62034Y36972D01*
X62111Y37058D01*
X62114Y37065D01*
X62119Y37071D01*
X62162Y37179D01*
X62207Y37284D01*
X62208Y37292D01*
X62211Y37300D01*
X62229Y37466D01*
X62229Y101600D01*
X62225Y101626D01*
X62226Y101675D01*
X62045Y103508D01*
X62038Y103535D01*
X62037Y103564D01*
X61991Y103725D01*
X60587Y107113D01*
X60553Y107168D01*
X60527Y107229D01*
X60475Y107293D01*
X60458Y107322D01*
X60443Y107334D01*
X60422Y107360D01*
X57830Y109952D01*
X57776Y109991D01*
X57730Y110037D01*
X57656Y110077D01*
X57630Y110096D01*
X57611Y110102D01*
X57583Y110117D01*
X54195Y111521D01*
X54167Y111527D01*
X54142Y111540D01*
X53978Y111575D01*
X52145Y111756D01*
X52118Y111754D01*
X52070Y111759D01*
X50585Y111759D01*
X50581Y111759D01*
X50577Y111759D01*
X50459Y111739D01*
X50342Y111720D01*
X50338Y111718D01*
X50334Y111717D01*
X50229Y111660D01*
X50124Y111604D01*
X50122Y111602D01*
X50118Y111600D01*
X50037Y111512D01*
X49955Y111426D01*
X49953Y111422D01*
X49951Y111420D01*
X49902Y111311D01*
X49851Y111203D01*
X49851Y111199D01*
X49849Y111195D01*
X49837Y111076D01*
X49824Y110959D01*
X49825Y110955D01*
X49825Y110951D01*
X49851Y110835D01*
X49877Y110718D01*
X49879Y110715D01*
X49880Y110711D01*
X49941Y110611D01*
X50003Y110507D01*
X50006Y110504D01*
X50008Y110501D01*
X50098Y110425D01*
X50190Y110347D01*
X50193Y110346D01*
X50196Y110343D01*
X50349Y110274D01*
X50811Y110124D01*
X52485Y109271D01*
X54006Y108166D01*
X55334Y106838D01*
X56439Y105317D01*
X57292Y103643D01*
X57873Y101856D01*
X58074Y100583D01*
X46990Y100583D01*
X46970Y100580D01*
X46951Y100582D01*
X46849Y100560D01*
X46747Y100543D01*
X46730Y100534D01*
X46710Y100530D01*
X46621Y100477D01*
X46530Y100428D01*
X46516Y100414D01*
X46499Y100404D01*
X46432Y100325D01*
X46361Y100250D01*
X46352Y100232D01*
X46339Y100217D01*
X46301Y100121D01*
X46257Y100027D01*
X46255Y100007D01*
X46247Y99989D01*
X46229Y99822D01*
X46229Y99059D01*
X45466Y99059D01*
X45446Y99056D01*
X45427Y99058D01*
X45325Y99036D01*
X45223Y99019D01*
X45206Y99010D01*
X45186Y99006D01*
X45097Y98953D01*
X45006Y98904D01*
X44992Y98890D01*
X44975Y98880D01*
X44908Y98801D01*
X44837Y98726D01*
X44828Y98708D01*
X44815Y98693D01*
X44776Y98597D01*
X44733Y98503D01*
X44731Y98483D01*
X44723Y98465D01*
X44705Y98298D01*
X44705Y87214D01*
X43432Y87415D01*
X41645Y87996D01*
X39971Y88849D01*
X38450Y89954D01*
X37122Y91282D01*
X36017Y92803D01*
X35164Y94477D01*
X35014Y94939D01*
X35012Y94942D01*
X35012Y94946D01*
X34956Y95051D01*
X34901Y95157D01*
X34898Y95160D01*
X34896Y95164D01*
X34810Y95245D01*
X34725Y95328D01*
X34721Y95330D01*
X34718Y95333D01*
X34609Y95383D01*
X34503Y95434D01*
X34499Y95435D01*
X34495Y95437D01*
X34377Y95450D01*
X34258Y95464D01*
X34255Y95463D01*
X34251Y95464D01*
X34134Y95438D01*
X34018Y95414D01*
X34014Y95412D01*
X34010Y95411D01*
X33908Y95350D01*
X33805Y95290D01*
X33803Y95287D01*
X33799Y95285D01*
X33722Y95195D01*
X33643Y95105D01*
X33642Y95101D01*
X33639Y95098D01*
X33595Y94988D01*
X33549Y94878D01*
X33549Y94874D01*
X33547Y94870D01*
X33529Y94703D01*
X33529Y61861D01*
X33548Y61746D01*
X33565Y61630D01*
X33568Y61624D01*
X33569Y61618D01*
X33623Y61516D01*
X33676Y61411D01*
X33681Y61406D01*
X33684Y61401D01*
X33768Y61321D01*
X33852Y61239D01*
X33858Y61235D01*
X33862Y61231D01*
X33879Y61224D01*
X33999Y61158D01*
X36680Y60047D01*
X39753Y56974D01*
X41415Y52960D01*
X41415Y48615D01*
X39753Y44600D01*
X36680Y41527D01*
X33999Y40417D01*
X33899Y40355D01*
X33799Y40295D01*
X33795Y40290D01*
X33790Y40287D01*
X33715Y40197D01*
X33639Y40108D01*
X33637Y40102D01*
X33633Y40098D01*
X33591Y39989D01*
X33547Y39880D01*
X33546Y39873D01*
X33545Y39868D01*
X33544Y39850D01*
X33529Y39713D01*
X33529Y24216D01*
X33532Y24197D01*
X33530Y24177D01*
X33552Y24076D01*
X33569Y23973D01*
X33578Y23956D01*
X33582Y23936D01*
X33635Y23847D01*
X33684Y23756D01*
X33698Y23742D01*
X33708Y23725D01*
X33787Y23658D01*
X33862Y23587D01*
X33880Y23578D01*
X33895Y23565D01*
X33991Y23527D01*
X34085Y23483D01*
X34105Y23481D01*
X34123Y23473D01*
X34290Y23455D01*
X35360Y23455D01*
X39375Y21792D01*
X42448Y18720D01*
X44110Y14705D01*
X44110Y10360D01*
X42448Y6345D01*
X39375Y3272D01*
X38078Y2735D01*
X37995Y2684D01*
X37909Y2638D01*
X37891Y2619D01*
X37869Y2606D01*
X37807Y2531D01*
X37740Y2460D01*
X37729Y2436D01*
X37712Y2416D01*
X37677Y2325D01*
X37636Y2237D01*
X37633Y2211D01*
X37624Y2187D01*
X37620Y2089D01*
X37609Y1993D01*
X37615Y1967D01*
X37614Y1941D01*
X37641Y1847D01*
X37662Y1752D01*
X37675Y1730D01*
X37682Y1705D01*
X37738Y1625D01*
X37788Y1541D01*
X37808Y1524D01*
X37822Y1503D01*
X37901Y1444D01*
X37975Y1381D01*
X37999Y1371D01*
X38020Y1356D01*
X38112Y1326D01*
X38203Y1289D01*
X38235Y1286D01*
X38254Y1280D01*
X38287Y1280D01*
X38369Y1271D01*
X50800Y1271D01*
X50826Y1275D01*
G37*
G36*
X27960Y1274D02*
X27960Y1274D01*
X27979Y1272D01*
X28081Y1294D01*
X28183Y1310D01*
X28200Y1320D01*
X28220Y1324D01*
X28309Y1377D01*
X28400Y1426D01*
X28414Y1440D01*
X28431Y1450D01*
X28498Y1529D01*
X28570Y1604D01*
X28578Y1622D01*
X28591Y1637D01*
X28630Y1733D01*
X28673Y1827D01*
X28675Y1847D01*
X28683Y1865D01*
X28701Y2032D01*
X28701Y2059D01*
X28700Y2068D01*
X28700Y2071D01*
X28696Y2089D01*
X28682Y2174D01*
X28665Y2290D01*
X28663Y2296D01*
X28662Y2302D01*
X28607Y2404D01*
X28554Y2509D01*
X28549Y2514D01*
X28546Y2519D01*
X28462Y2600D01*
X28378Y2682D01*
X28372Y2685D01*
X28368Y2689D01*
X28351Y2697D01*
X28231Y2763D01*
X27000Y3272D01*
X23928Y6345D01*
X22265Y10360D01*
X22265Y14705D01*
X23928Y18720D01*
X27000Y21792D01*
X28231Y22302D01*
X28331Y22364D01*
X28431Y22423D01*
X28435Y22428D01*
X28440Y22431D01*
X28515Y22521D01*
X28591Y22610D01*
X28593Y22616D01*
X28597Y22621D01*
X28639Y22729D01*
X28683Y22838D01*
X28684Y22846D01*
X28685Y22851D01*
X28686Y22869D01*
X28701Y23005D01*
X28701Y38333D01*
X28688Y38416D01*
X28683Y38499D01*
X28668Y38536D01*
X28662Y38576D01*
X28623Y38650D01*
X28591Y38727D01*
X28565Y38758D01*
X28546Y38793D01*
X28486Y38851D01*
X28432Y38914D01*
X28397Y38935D01*
X28368Y38963D01*
X28292Y38998D01*
X28221Y39041D01*
X28170Y39055D01*
X28145Y39066D01*
X28116Y39070D01*
X28059Y39085D01*
X27697Y39142D01*
X25910Y39723D01*
X24236Y40576D01*
X23193Y41334D01*
X28478Y46619D01*
X28531Y46693D01*
X28591Y46762D01*
X28603Y46792D01*
X28622Y46818D01*
X28649Y46905D01*
X28683Y46990D01*
X28687Y47031D01*
X28694Y47053D01*
X28693Y47086D01*
X28701Y47157D01*
X28701Y49312D01*
X28690Y49383D01*
X28688Y49454D01*
X28670Y49503D01*
X28662Y49555D01*
X28628Y49618D01*
X28603Y49686D01*
X28571Y49726D01*
X28546Y49772D01*
X28495Y49822D01*
X28450Y49878D01*
X28406Y49906D01*
X28368Y49942D01*
X28303Y49972D01*
X28243Y50011D01*
X28192Y50023D01*
X28145Y50045D01*
X28074Y50053D01*
X28004Y50071D01*
X27952Y50067D01*
X27901Y50072D01*
X27830Y50057D01*
X27759Y50051D01*
X27711Y50031D01*
X27660Y50020D01*
X27599Y49983D01*
X27533Y49955D01*
X27477Y49910D01*
X27449Y49894D01*
X27434Y49876D01*
X27402Y49850D01*
X21039Y43488D01*
X20282Y44530D01*
X19429Y46204D01*
X18848Y47992D01*
X18554Y49848D01*
X18554Y51727D01*
X18848Y53583D01*
X19429Y55370D01*
X20282Y57044D01*
X21039Y58087D01*
X27402Y51724D01*
X27460Y51682D01*
X27512Y51633D01*
X27559Y51611D01*
X27601Y51581D01*
X27670Y51559D01*
X27735Y51529D01*
X27787Y51523D01*
X27837Y51508D01*
X27908Y51510D01*
X27979Y51502D01*
X28030Y51513D01*
X28082Y51515D01*
X28150Y51539D01*
X28220Y51554D01*
X28265Y51581D01*
X28313Y51599D01*
X28369Y51644D01*
X28431Y51681D01*
X28465Y51720D01*
X28505Y51753D01*
X28544Y51813D01*
X28591Y51867D01*
X28610Y51916D01*
X28638Y51960D01*
X28656Y52029D01*
X28667Y52055D01*
X28673Y52069D01*
X28673Y52072D01*
X28683Y52096D01*
X28691Y52167D01*
X28699Y52198D01*
X28697Y52221D01*
X28701Y52262D01*
X28701Y54418D01*
X28687Y54508D01*
X28679Y54599D01*
X28667Y54628D01*
X28662Y54660D01*
X28619Y54741D01*
X28583Y54825D01*
X28557Y54857D01*
X28546Y54878D01*
X28523Y54900D01*
X28478Y54956D01*
X23193Y60241D01*
X24236Y60998D01*
X25910Y61851D01*
X27697Y62432D01*
X28059Y62489D01*
X28138Y62515D01*
X28220Y62533D01*
X28254Y62554D01*
X28293Y62566D01*
X28359Y62617D01*
X28431Y62659D01*
X28457Y62690D01*
X28489Y62714D01*
X28537Y62783D01*
X28591Y62846D01*
X28606Y62884D01*
X28629Y62917D01*
X28652Y62997D01*
X28683Y63074D01*
X28689Y63127D01*
X28696Y63153D01*
X28695Y63183D01*
X28701Y63241D01*
X28701Y68883D01*
X28686Y68979D01*
X28676Y69076D01*
X28666Y69100D01*
X28662Y69126D01*
X28616Y69212D01*
X28576Y69301D01*
X28559Y69320D01*
X28546Y69343D01*
X28476Y69410D01*
X28410Y69482D01*
X28387Y69495D01*
X28368Y69513D01*
X28280Y69554D01*
X28194Y69601D01*
X28169Y69605D01*
X28145Y69616D01*
X28048Y69627D01*
X27952Y69644D01*
X27926Y69640D01*
X27901Y69643D01*
X27805Y69623D01*
X27709Y69608D01*
X27686Y69597D01*
X27660Y69591D01*
X27577Y69541D01*
X27490Y69497D01*
X27471Y69478D01*
X27449Y69465D01*
X27386Y69391D01*
X27318Y69321D01*
X27302Y69293D01*
X27289Y69278D01*
X27277Y69247D01*
X27237Y69174D01*
X26532Y67473D01*
X23459Y64400D01*
X19445Y62737D01*
X15099Y62737D01*
X11085Y64400D01*
X8012Y67473D01*
X6349Y71487D01*
X6349Y75833D01*
X8012Y79847D01*
X11085Y82920D01*
X15099Y84583D01*
X19445Y84583D01*
X23459Y82920D01*
X26532Y79847D01*
X27237Y78146D01*
X27288Y78063D01*
X27334Y77977D01*
X27353Y77959D01*
X27366Y77937D01*
X27441Y77874D01*
X27512Y77807D01*
X27536Y77796D01*
X27556Y77780D01*
X27647Y77745D01*
X27735Y77704D01*
X27761Y77701D01*
X27785Y77692D01*
X27883Y77687D01*
X27979Y77677D01*
X28005Y77682D01*
X28031Y77681D01*
X28125Y77708D01*
X28220Y77729D01*
X28242Y77742D01*
X28267Y77750D01*
X28347Y77805D01*
X28431Y77855D01*
X28448Y77875D01*
X28469Y77890D01*
X28528Y77968D01*
X28591Y78042D01*
X28601Y78066D01*
X28616Y78087D01*
X28646Y78180D01*
X28683Y78270D01*
X28686Y78303D01*
X28692Y78321D01*
X28692Y78354D01*
X28701Y78437D01*
X28701Y92137D01*
X28700Y92145D01*
X28701Y92152D01*
X28680Y92266D01*
X28662Y92379D01*
X28658Y92387D01*
X28656Y92394D01*
X28600Y92495D01*
X28546Y92597D01*
X28541Y92602D01*
X28537Y92609D01*
X28452Y92687D01*
X28368Y92766D01*
X28361Y92770D01*
X28355Y92775D01*
X28250Y92821D01*
X28145Y92870D01*
X28137Y92871D01*
X28130Y92874D01*
X28015Y92884D01*
X27901Y92897D01*
X27893Y92895D01*
X27885Y92896D01*
X27773Y92869D01*
X27660Y92845D01*
X27653Y92841D01*
X27646Y92839D01*
X27548Y92778D01*
X27449Y92718D01*
X27444Y92712D01*
X27437Y92708D01*
X27324Y92584D01*
X26378Y91282D01*
X25050Y89954D01*
X23529Y88849D01*
X21855Y87996D01*
X20068Y87415D01*
X18795Y87214D01*
X18795Y98298D01*
X18792Y98318D01*
X18794Y98337D01*
X18772Y98439D01*
X18755Y98541D01*
X18746Y98558D01*
X18742Y98578D01*
X18689Y98667D01*
X18640Y98758D01*
X18626Y98772D01*
X18616Y98789D01*
X18537Y98856D01*
X18462Y98927D01*
X18444Y98936D01*
X18429Y98949D01*
X18333Y98987D01*
X18239Y99031D01*
X18219Y99033D01*
X18201Y99041D01*
X18034Y99059D01*
X17271Y99059D01*
X17271Y99822D01*
X17268Y99842D01*
X17270Y99861D01*
X17248Y99963D01*
X17231Y100065D01*
X17222Y100082D01*
X17218Y100102D01*
X17165Y100191D01*
X17116Y100282D01*
X17102Y100296D01*
X17092Y100313D01*
X17013Y100380D01*
X16938Y100451D01*
X16920Y100460D01*
X16905Y100473D01*
X16809Y100512D01*
X16715Y100555D01*
X16695Y100557D01*
X16677Y100565D01*
X16510Y100583D01*
X5426Y100583D01*
X5627Y101856D01*
X6208Y103643D01*
X7061Y105317D01*
X8166Y106838D01*
X9494Y108166D01*
X11015Y109271D01*
X12689Y110124D01*
X13151Y110274D01*
X13154Y110276D01*
X13158Y110277D01*
X13262Y110332D01*
X13369Y110387D01*
X13372Y110390D01*
X13376Y110392D01*
X13457Y110478D01*
X13540Y110563D01*
X13542Y110567D01*
X13545Y110570D01*
X13596Y110679D01*
X13646Y110785D01*
X13647Y110789D01*
X13649Y110793D01*
X13662Y110912D01*
X13676Y111030D01*
X13675Y111034D01*
X13676Y111037D01*
X13650Y111153D01*
X13626Y111270D01*
X13624Y111274D01*
X13623Y111278D01*
X13563Y111379D01*
X13502Y111483D01*
X13499Y111486D01*
X13497Y111489D01*
X13407Y111566D01*
X13317Y111645D01*
X13313Y111646D01*
X13310Y111649D01*
X13199Y111694D01*
X13090Y111739D01*
X13086Y111739D01*
X13082Y111741D01*
X12915Y111759D01*
X11430Y111759D01*
X11404Y111755D01*
X11355Y111756D01*
X9522Y111575D01*
X9495Y111568D01*
X9466Y111567D01*
X9305Y111521D01*
X5917Y110117D01*
X5862Y110083D01*
X5801Y110057D01*
X5737Y110005D01*
X5708Y109988D01*
X5696Y109973D01*
X5670Y109952D01*
X3078Y107360D01*
X3039Y107306D01*
X2993Y107260D01*
X2953Y107186D01*
X2934Y107160D01*
X2928Y107141D01*
X2913Y107113D01*
X1509Y103725D01*
X1503Y103697D01*
X1490Y103672D01*
X1455Y103508D01*
X1274Y101675D01*
X1276Y101648D01*
X1271Y101600D01*
X1271Y37753D01*
X1286Y37657D01*
X1296Y37560D01*
X1306Y37536D01*
X1310Y37510D01*
X1356Y37425D01*
X1396Y37335D01*
X1413Y37316D01*
X1426Y37293D01*
X1496Y37226D01*
X1562Y37154D01*
X1585Y37142D01*
X1604Y37124D01*
X1692Y37083D01*
X1778Y37036D01*
X1803Y37031D01*
X1827Y37020D01*
X1924Y37009D01*
X2020Y36992D01*
X2046Y36996D01*
X2071Y36993D01*
X2167Y37014D01*
X2263Y37028D01*
X2286Y37040D01*
X2312Y37045D01*
X2395Y37095D01*
X2482Y37139D01*
X2501Y37158D01*
X2523Y37171D01*
X2586Y37245D01*
X2654Y37315D01*
X2670Y37344D01*
X2683Y37358D01*
X2695Y37389D01*
X2735Y37462D01*
X3453Y39194D01*
X6525Y42267D01*
X10540Y43930D01*
X14885Y43930D01*
X18900Y42267D01*
X21973Y39194D01*
X23635Y35180D01*
X23635Y30835D01*
X21973Y26820D01*
X18900Y23747D01*
X14885Y22084D01*
X10540Y22084D01*
X6525Y23747D01*
X3453Y26820D01*
X2735Y28553D01*
X2684Y28636D01*
X2638Y28721D01*
X2620Y28739D01*
X2606Y28762D01*
X2530Y28824D01*
X2460Y28891D01*
X2436Y28902D01*
X2416Y28918D01*
X2325Y28953D01*
X2237Y28994D01*
X2211Y28997D01*
X2187Y29007D01*
X2089Y29011D01*
X1993Y29021D01*
X1967Y29016D01*
X1941Y29017D01*
X1847Y28990D01*
X1752Y28969D01*
X1730Y28956D01*
X1705Y28948D01*
X1625Y28893D01*
X1541Y28843D01*
X1524Y28823D01*
X1503Y28808D01*
X1444Y28730D01*
X1381Y28656D01*
X1371Y28632D01*
X1356Y28611D01*
X1326Y28518D01*
X1289Y28428D01*
X1286Y28395D01*
X1280Y28377D01*
X1280Y28344D01*
X1271Y28261D01*
X1271Y12700D01*
X1275Y12674D01*
X1275Y12669D01*
X1273Y12650D01*
X1275Y12642D01*
X1274Y12625D01*
X1479Y10544D01*
X1487Y10517D01*
X1487Y10489D01*
X1534Y10327D01*
X3127Y6482D01*
X3161Y6426D01*
X3187Y6366D01*
X3239Y6301D01*
X3256Y6273D01*
X3271Y6260D01*
X3292Y6235D01*
X6235Y3292D01*
X6288Y3253D01*
X6335Y3207D01*
X6408Y3167D01*
X6435Y3148D01*
X6453Y3142D01*
X6482Y3127D01*
X10327Y1534D01*
X10355Y1527D01*
X10380Y1514D01*
X10544Y1479D01*
X12625Y1274D01*
X12652Y1276D01*
X12700Y1271D01*
X27940Y1271D01*
X27960Y1274D01*
G37*
%LPC*%
G36*
X44055Y62737D02*
X44055Y62737D01*
X40041Y64400D01*
X36968Y67473D01*
X35305Y71487D01*
X35305Y75833D01*
X36968Y79847D01*
X40041Y82920D01*
X44055Y84583D01*
X48401Y84583D01*
X52415Y82920D01*
X55488Y79847D01*
X57151Y75833D01*
X57151Y71487D01*
X55488Y67473D01*
X52415Y64400D01*
X48401Y62737D01*
X44055Y62737D01*
G37*
%LPD*%
%LPC*%
G36*
X47751Y97537D02*
X47751Y97537D01*
X58074Y97537D01*
X57873Y96264D01*
X57292Y94477D01*
X56439Y92803D01*
X55334Y91282D01*
X54006Y89954D01*
X52485Y88849D01*
X50811Y87996D01*
X49024Y87415D01*
X47751Y87214D01*
X47751Y97537D01*
G37*
%LPD*%
%LPC*%
G36*
X43668Y39766D02*
X43668Y39766D01*
X44711Y40523D01*
X46385Y41376D01*
X48172Y41957D01*
X50028Y42251D01*
X51907Y42251D01*
X53763Y41957D01*
X55551Y41376D01*
X57225Y40523D01*
X58267Y39766D01*
X50968Y32466D01*
X43668Y39766D01*
G37*
%LPD*%
%LPC*%
G36*
X14476Y87415D02*
X14476Y87415D01*
X12689Y87996D01*
X11015Y88849D01*
X9494Y89954D01*
X8166Y91282D01*
X7061Y92803D01*
X6208Y94477D01*
X5627Y96264D01*
X5426Y97537D01*
X15749Y97537D01*
X15749Y87214D01*
X14476Y87415D01*
G37*
%LPD*%
%LPC*%
G36*
X40757Y24055D02*
X40757Y24055D01*
X39904Y25729D01*
X39323Y27517D01*
X39029Y29373D01*
X39029Y31252D01*
X39323Y33108D01*
X39904Y34895D01*
X40757Y36569D01*
X41514Y37612D01*
X48814Y30312D01*
X41514Y23013D01*
X40757Y24055D01*
G37*
%LPD*%
%LPC*%
G36*
X50028Y18374D02*
X50028Y18374D01*
X48172Y18667D01*
X46385Y19248D01*
X44711Y20101D01*
X43668Y20859D01*
X50968Y28158D01*
X58267Y20859D01*
X57225Y20101D01*
X55551Y19248D01*
X53763Y18667D01*
X51907Y18374D01*
X50028Y18374D01*
G37*
%LPD*%
%LPC*%
G36*
X50967Y30312D02*
X50967Y30312D01*
X50968Y30313D01*
X50969Y30312D01*
X50968Y30311D01*
X50967Y30312D01*
G37*
%LPD*%
D10*
X17272Y73660D03*
X46228Y73660D03*
X17272Y99060D03*
X46228Y99060D03*
X12713Y33007D03*
X33188Y12532D03*
X30493Y50787D03*
X50968Y30312D03*
M02*
